<?xml version="1.0" encoding="UTF-8" standalone="no"?>
<svg
   width="79.374992mm"
   height="79.383728mm"
   viewBox="0 0 79.374993 79.383728"
   version="1.1"
   id="svg1"
   xmlns="http://www.w3.org/2000/svg"
   xmlns:svg="http://www.w3.org/2000/svg">
  <g
     id="layer1"
     transform="translate(-62.565344,-97.763289)">
    <path
       d="m 69.715452,157.32199 q -1.016,0 -1.7272,-0.6604 -0.6604,-0.7112 -0.6604,-1.7272 v -34.8996 q 0,-1.0668 0.6604,-1.7272 0.7112,-0.6604 1.7272,-0.6604 h 9.296399 q 3.7592,0 6.6548,1.5748 2.9464,1.5748 4.572,4.3688 1.6764,2.794 1.6764,6.4516 0,3.4544 -1.6764,6.1468 -1.6256,2.6924 -4.572,4.2164 -2.8956,1.524 -6.6548,1.524 h -6.908799 v 13.0048 q 0,1.016 -0.6604,1.7272 -0.6604,0.6604 -1.7272,0.6604 z m 21.132799,0 q -0.6604,0 -1.1684,-0.254 -0.508,-0.3048 -0.9144,-0.9144 l -9.3472,-15.0368 4.6736,-1.3208 8.636,13.8684 q 0.8636,1.3716 0.254,2.54 -0.6096,1.1176 -2.1336,1.1176 z m -18.745199,-19.8628 h 6.908799 q 2.4384,0 4.2672,-0.9144 1.8796,-0.9652 2.9464,-2.6416 1.0668,-1.7272 1.0668,-3.8608 0,-2.3368 -1.0668,-4.1148 -1.0668,-1.8288 -2.9464,-2.794 -1.8288,-1.016 -4.2672,-1.016 h -6.908799 z m 53.975038,19.8628 q -1.016,0 -1.7272,-0.6604 -0.6604,-0.7112 -0.6604,-1.7272 v -13.0048 h -9.8552 v -0.508 q -3.6576,0 -6.5532,-1.4224 -2.8448,-1.4732 -4.5212,-4.064 -1.6764,-2.5908 -1.6764,-5.8928 0,-3.6576 1.6764,-6.4008 1.6764,-2.794 4.572,-4.3688 2.9464,-1.6256 6.7056,-1.6256 h 12.0396 q 1.016,0 1.6764,0.6604 0.7112,0.6604 0.7112,1.7272 v 34.8996 q 0,1.016 -0.7112,1.7272 -0.6604,0.6604 -1.6764,0.6604 z m -22.5552,0 q -1.524,0 -2.1336,-1.1176 -0.6096,-1.1684 0.254,-2.54 l 8.7376,-13.9192 4.6736,1.3208 -9.4488,15.0876 q -0.4064,0.6096 -0.9144,0.9144 -0.508,0.254 -1.1684,0.254 z m 10.5156,-19.7104 h 9.652 v -15.494 h -9.652 q -2.3876,0 -4.318,0.9144 -1.8796,0.9144 -2.9464,2.6924 -1.016,1.778 -1.016,4.318 0,2.3876 1.016,4.1148 1.0668,1.6764 2.9464,2.5908 1.9304,0.8636 4.318,0.8636 z"
       id="text1"
       style="font-weight:600;font-size:50.8px;font-family:Comfortaa;-inkscape-font-specification:'Comfortaa, Semi-Bold';text-align:center;letter-spacing:3.175px;text-anchor:middle;stroke-width:0.264583"
       aria-label="RЯ" />
    <path
       id="rect1"
       style="fill:none;stroke:#000000;stroke-width:4.63;stroke-dasharray:none"
       d="m 97.146891,114.47131 37.793489,-13.42867 v 72.69272 L 97.146891,160.30669 Z" />
  </g>
</svg>
